<svg xmlns="http://www.w3.org/2000/svg" viewBox="440 220 660 550">
<path d="M767 237C759.809 253.665 748.023 269.588 738.424 285C721.096 312.822 704.214 340.979 687.203 369C631.963 459.996 576.316 550.723 521.551 642C505.868 668.139 489.617 693.942 473.797 720C466.6 731.855 456.776 743.956 452 757L502 757C507.042 757 516.336 758.783 520.471 755.397C523.512 752.906 525.261 748.285 527.319 745C532.7 736.415 537.724 727.607 543.064 719C561.395 689.455 579.487 659.763 597.45 630C634.621 568.409 672.175 506.861 710.53 446C723.452 425.495 736.13 404.785 748.6 384C754.732 373.78 762.904 363.188 767 352L769 352C772.371 362.653 780.349 372.399 785.989 382C799.061 404.253 812.931 426.094 826.575 448C865.437 510.398 904.178 572.97 942 636C958.689 663.813 975.967 691.277 992.797 719C998.067 727.681 1003.29 736.395 1008.68 745C1010.74 748.285 1012.49 752.906 1015.53 755.397C1019.66 758.783 1028.96 757 1034 757L1083 757C1081.65 751.265 1077.83 746.024 1074.8 741C1069.32 731.93 1063.72 722.952 1058.05 714C1042.41 689.284 1027.83 663.868 1012.42 639C959.638 553.806 907.76 467.936 856.2 382C836.53 349.216 816.18 316.839 796.604 284C790.612 273.949 784.419 264.032 778.4 254C774.949 248.248 772.152 241.384 767 237M569 757L626 757C632.133 757 643.386 759.154 648.787 755.972C653.686 753.086 657.282 743.806 660.142 739C667.736 726.238 675.754 713.736 683.4 701C711.463 654.251 740.299 607.972 768 561C770.887 567.692 775.301 573.72 778.989 580C786.685 593.103 794.572 606.082 802.576 619C820.252 647.529 837.167 676.536 854.95 705C861.964 716.227 869.099 727.542 875.716 739C878.619 744.026 882.045 752.956 887.21 755.972C892.641 759.144 903.844 757 910 757L966 757C963.614 746.839 954.775 736.912 949.399 728C936.444 706.523 922.912 685.385 909.811 664C880.408 616.007 851.335 567.784 821.575 520C804.052 491.865 784.581 464.268 769 435C761.503 438.895 757.388 451.052 752.831 458C739.506 478.317 726.7 499.166 714.2 520C681.596 574.341 647.949 628.138 614.576 682C604.268 698.636 593.956 715.275 583.797 732C578.854 740.139 572.287 748.022 569 757z" fill="#FFFFFF" fill-rule="evenodd"/>
</svg>
